<?xml version="1.0" encoding="UTF-8" standalone="no"?>
<svg
   xmlns:dc="http://purl.org/dc/elements/1.1/"
   xmlns:cc="http://creativecommons.org/ns#"
   xmlns:rdf="http://www.w3.org/1999/02/22-rdf-syntax-ns#"
   xmlns:svg="http://www.w3.org/2000/svg"
   xmlns="http://www.w3.org/2000/svg"
   xmlns:sodipodi="http://sodipodi.sourceforge.net/DTD/sodipodi-0.dtd"
   xmlns:inkscape="http://www.inkscape.org/namespaces/inkscape"
   viewBox="-13167 -414 48 48"
   version="1.1"
   id="svg14"
   sodipodi:docname="sks-logo.svg"
   inkscape:version="0.92.2 (5c3e80d, 2017-08-06)"
   width="48"
   height="48">
  <metadata
     id="metadata18">
    <rdf:RDF>
      <cc:Work
         rdf:about="">
        <dc:format>image/svg+xml</dc:format>
        <dc:type
           rdf:resource="http://purl.org/dc/dcmitype/StillImage" />
        <dc:title></dc:title>
      </cc:Work>
    </rdf:RDF>
  </metadata>
  <sodipodi:namedview
     pagecolor="#ffffff"
     bordercolor="#666666"
     borderopacity="1"
     objecttolerance="10"
     gridtolerance="10"
     guidetolerance="10"
     inkscape:pageopacity="0"
     inkscape:pageshadow="2"
     inkscape:window-width="1920"
     inkscape:window-height="1001"
     id="namedview16"
     showgrid="false"
     inkscape:zoom="12.788209"
     inkscape:cx="23.704569"
     inkscape:cy="25.34314"
     inkscape:window-x="-9"
     inkscape:window-y="-9"
     inkscape:window-maximized="1"
     inkscape:current-layer="svg14"
     units="px" />
  <defs
     id="defs6">
    <style
       id="style2">
      .cls-1 {
        fill: #bababa;
      }

      .cls-2 {
        clip-path: url(#clip-path);
      }

      .cls-3 {
        fill: #eab755;
      }

      .cls-4 {
        fill: #fff;
      }
    </style>
    <clipPath
       id="clip-path">
      <path
         id="Path_55"
         data-name="Path 55"
         class="cls-1"
         d="M 0,-57.891 H 48.9 V -94.8 H 0 Z"
         transform="translate(0,94.8)"
         inkscape:connector-curvature="0"
         style="fill:#bababa" />
    </clipPath>
    <inkscape:path-effect
       effect="powerstroke"
       id="path-effect1442"
       is_visible="true"
       offset_points="0,4.0152567"
       sort_points="true"
       interpolator_type="CubicBezierJohan"
       interpolator_beta="0.2"
       start_linecap_type="zerowidth"
       linejoin_type="extrp_arc"
       miter_limit="4"
       end_linecap_type="zerowidth" />
    <inkscape:path-effect
       end_linecap_type="zerowidth"
       miter_limit="4"
       linejoin_type="extrp_arc"
       start_linecap_type="zerowidth"
       interpolator_beta="0.2"
       interpolator_type="CubicBezierJohan"
       sort_points="true"
       offset_points="0.00095130801,2.9923108"
       is_visible="true"
       id="path-effect1429"
       effect="powerstroke" />
    <inkscape:path-effect
       end_linecap_type="zerowidth"
       miter_limit="4"
       linejoin_type="extrp_arc"
       start_linecap_type="zerowidth"
       interpolator_beta="0.2"
       interpolator_type="CubicBezierJohan"
       sort_points="true"
       offset_points="0.083461976,3.1217699"
       is_visible="true"
       id="path-effect1423"
       effect="powerstroke" />
  </defs>
  <g
     style="display:inline"
     id="g1528"
     transform="matrix(0.22269875,0,0,0.22269875,-13289.59,-410.3499)">
    <path
       style="fill:#4b9ff5;fill-opacity:1;stroke:#000000;stroke-width:0;stroke-linecap:butt;stroke-linejoin:miter;stroke-miterlimit:4;stroke-dasharray:none;stroke-opacity:1"
       d="m 578.02727,181.40749 c 7.74182,-2.98576 11.3682,-9.80277 16.47368,-16.17988 l -0.0424,-8.08614 47.27169,-16.41241 4.86527,-18.34348 27.38016,-8.38922 2.67081,-16.689959 14.68513,-7.70451 14.00174,-38.898766 C 664.43749,96.187321 573.25657,117.90598 578.02727,181.40749 Z"
       id="path1351"
       inkscape:connector-curvature="0"
       sodipodi:nodetypes="cccccccccc" />
    <path
       style="fill:#646c8c;fill-opacity:1;stroke:#000000;stroke-width:0;stroke-linecap:butt;stroke-linejoin:miter;stroke-miterlimit:4;stroke-dasharray:none;stroke-opacity:1"
       d="m 603.9161,138.18168 c -6.50471,2.10199 -10.84717,7.23754 -15.95817,11.08167 -6.97205,12.35147 -5.26352,39.91517 3.74983,49.05737 8.56678,-5.69001 23.09772,-20.8525 34.65106,-31.28586 z"
       id="path1353"
       inkscape:connector-curvature="0"
       sodipodi:nodetypes="ccccc" />
    <path
       sodipodi:nodetypes="cc"
       inkscape:original-d="m 604.29004,68.356421 c -20.46046,-1.00098 -38.37926,-9.66703 -46.79345,-14.02292"
       inkscape:path-effect="#path-effect1442"
       inkscape:connector-curvature="0"
       id="path1355"
       d="m 604.29004,68.356421 c 0,0 0.1962,-4.01046 0.1962,-4.01046 -3.19256,-0.156189 -6.99192,-0.270465 -12.18018,-0.87637 -5.09094,-0.594538 -10.1431,-1.51648 -15.26584,-2.761092 -9.72983,-2.363946 -17.60677,-5.372317 -19.54363,-6.374998 2.52426,1.306767 8.68234,5.758062 18.21512,10.164104 4.89296,2.261527 10.04645,4.204112 15.29749,5.622463 5.21537,1.408719 9.75552,2.083944 13.08464,2.246813 0,0 0.1962,-4.01046 0.1962,-4.01046 z"
       style="fill:#36394c;fill-opacity:1;fill-rule:nonzero;stroke:none;stroke-width:0.26458332px;stroke-linecap:butt;stroke-linejoin:miter;stroke-opacity:1" />
    <path
       style="fill:#525973;fill-opacity:1;stroke:#000000;stroke-width:0;stroke-linecap:butt;stroke-linejoin:miter;stroke-miterlimit:4;stroke-dasharray:none;stroke-opacity:1"
       d="m 578.87232,65.762001 c 4.889,20.82929 9.33708,41.658569 14.66699,62.487859 0,0 17.03006,0.17284 13.21717,5.15238 -21.12644,27.59063 6.85432,35.41585 33.03336,10.41895 3.71575,-3.54796 9.12734,-2.87837 15.71798,-9.13907 6.98375,-6.63413 -6.29253,-3.80052 0.1605,-20.06651 0.4636,-1.16856 6.44243,1.01413 7.25232,-0.15629 C 673.11239,41.418492 608.4033,29.011839 578.87232,65.762001 Z"
       id="path1357"
       inkscape:connector-curvature="0"
       sodipodi:nodetypes="ccsssscc" />
    <g
       id="g1369"
       transform="matrix(0.90901382,-0.0899187,0.09843852,0.99514313,527.42716,-55.299457)">
      <path
         sodipodi:nodetypes="ccccc"
         inkscape:connector-curvature="0"
         id="path1359"
         d="m 137.48884,99.696427 1.74814,1.984373 c 0,0 76.80053,-34.266453 86.32424,-41.076417 -17.47051,0.272678 -29.29708,-0.02849 -29.29708,-0.02849 z"
         style="fill:#e12a64;fill-opacity:1;stroke:#000000;stroke-width:0;stroke-linecap:butt;stroke-linejoin:miter;stroke-miterlimit:4;stroke-dasharray:none;stroke-opacity:1" />
      <path
         sodipodi:nodetypes="ccc"
         inkscape:connector-curvature="0"
         id="path1361"
         d="M 95.898374,117.8673 C 96.018907,105.51208 101.89194,86.54129 124.31386,83.246839 96.62869,73.066579 89.679783,108.40424 95.898374,117.8673 Z"
         style="fill:#e12a64;fill-opacity:1;stroke:#000000;stroke-width:0;stroke-linecap:butt;stroke-linejoin:miter;stroke-miterlimit:4;stroke-dasharray:none;stroke-opacity:1" />
      <g
         id="g1365"
         style="fill:#e12a64;fill-opacity:1">
        <path
           sodipodi:nodetypes="ccccccccccccccccccccccccccccccccccccccccccccccccccccccccccccccccccccccccccccccccccccccccccccccccccccc"
           style="fill:#e12a64;fill-opacity:1;stroke:none;stroke-width:0.26458332px;stroke-linecap:butt;stroke-linejoin:miter;stroke-opacity:1"
           d="m 95.886563,117.57201 c 0.454721,-0.0142 -1.912904,-5.45069 1.84108,-14.99737 1.321949,-3.350697 3.527227,-7.06989 6.947947,-10.403992 4.13663,-4.037727 10.15046,-7.769136 17.50844,-8.987969 1.24675,-0.186486 2.49861,0.03669 3.5901,0.574625 1.17503,0.580397 2.16127,1.389357 3.00466,2.268451 1.97327,2.036428 3.44733,4.375053 4.89202,6.79657 1.26047,2.091849 2.48934,4.403174 3.89089,6.314632 0.49371,0.641575 0.90935,1.217253 1.37213,1.499923 0.14625,0.0772 0.21812,0.13379 0.20837,0.10776 -0.0584,-0.006 -0.0871,-0.005 -0.13522,0.0138 2.23042,-1.14368 4.45476,-2.171796 6.76988,-3.251831 3.55938,-1.661033 7.13056,-3.295623 10.8838,-5.006049 9.43831,-4.301259 17.87223,-8.093113 28.23071,-12.777227 8.5529,-3.867681 17.83489,-8.056823 26.87486,-12.291515 3.04325,-1.425765 6.12806,-2.879633 9.15285,-4.405874 0.95864,-0.484073 1.90287,-0.967448 2.81005,-1.477836 l 1e-5,-7e-6 c 0.30057,-0.169489 0.58409,-0.332726 0.84383,-0.498843 l 1e-5,-6e-6 c 0.18177,-0.122879 0.30055,-0.192044 0.33454,-0.231498 -0.1886,-0.08 -0.35534,0.381543 -0.53859,1.38634 0.36422,0.985083 0.64215,1.434568 0.86941,1.34472 0.34257,0.106816 0.35939,0.159126 0.12805,0.0864 -0.62398,-0.07038 -1.33756,-0.049 -2.13682,-0.04631 -0.58723,0.005 -1.17638,0.01363 -1.76808,0.02435 -2.13022,0.03858 -4.27146,0.103488 -6.4235,0.122406 -3.3023,0.03044 -6.59865,-0.006 -9.90982,-0.298804 -2.60247,-0.191206 -5.45901,-0.508799 -8.16445,-1.855631 0.56819,0.186089 0.85346,0.251029 0.86698,0.174201 0.11539,-0.02022 0.1561,-0.02385 0.12169,-0.02052 -0.0913,0.02257 -0.23775,0.09428 -0.44681,0.187796 -0.69179,0.323255 -1.39441,0.72694 -2.12977,1.149467 -2.51903,1.453357 -5.005,3.033383 -7.45506,4.593145 -7.48365,4.765774 -15.15608,9.851869 -22.09317,14.420864 -7.94085,5.230233 -14.85656,9.805595 -22.16984,14.475928 -2.5748,1.644574 -5.04462,3.214596 -7.59812,4.716834 l -1e-5,10e-6 c -0.75779,0.44674 -1.53313,0.89732 -2.36082,1.31238 -0.23264,0.11885 -0.50773,0.25009 -0.83313,0.37256 -0.0947,0.0386 -0.23931,0.0836 -0.43495,0.12725 -0.0511,0.0616 -0.33383,0.0588 -0.84123,-0.0291 -0.89624,-0.3232 -1.52944,-0.82692 -1.94071,-1.32146 -0.6032,-0.65876 -1.07407,-1.34486 -1.48194,-1.982726 -1.16739,-1.800964 -2.16637,-3.575092 -3.25952,-5.166128 -1.44037,-2.093406 -3.01004,-3.956085 -4.79915,-5.478093 -2.25014,-1.923467 -4.83789,-3.29049 -7.46625,-4.105347 -1.35104,-0.42054 -2.78803,-0.470979 -4.09624,-0.165867 -1.40804,0.315855 -2.7265,1.0419 -3.87677,1.909636 -3.02159,2.276346 -5.05642,5.663681 -6.473983,8.635449 -2.022082,4.283175 -2.939101,8.321086 -3.294574,11.641996 -0.706398,6.85676 1.181518,10.44255 0.986224,10.54262 -0.123427,0.0632 -2.643111,-3.17272 -2.230283,-10.64053 0.178011,-3.45702 0.944792,-7.717046 2.905759,-12.279347 1.349848,-3.174341 3.429915,-6.85868 6.781877,-9.587487 1.29773,-1.054614 2.866,-1.956941 4.65909,-2.428503 1.70069,-0.434999 3.54654,-0.422086 5.31802,0.08433 2.94644,0.840072 5.86415,2.300197 8.44224,4.413387 2.03315,1.673631 3.80231,3.679555 5.37595,5.897423 1.20951,1.702696 2.2568,3.487008 3.38716,5.170503 0.40478,0.59448 0.78632,1.147995 1.20727,1.578604 0.32639,0.29009 0.54938,0.52696 0.6933,0.51927 -0.42185,-0.062 -0.61196,-0.082 -0.57538,-0.0384 -0.0464,0.0131 -0.0466,0.008 0.002,-0.006 0.14213,-0.0523 0.31532,-0.14286 0.52934,-0.25124 0.71267,-0.368549 1.42243,-0.797336 2.16824,-1.249322 l 1e-5,-6e-6 c 2.47639,-1.504215 4.89037,-3.085356 7.44402,-4.761046 7.33721,-4.81564 13.97892,-9.311011 21.99005,-14.680669 6.92719,-4.643289 14.5203,-9.746103 22.05264,-14.590268 2.44588,-1.573516 4.96834,-3.189296 7.5695,-4.702929 0.74118,-0.433081 1.52928,-0.884723 2.38789,-1.294079 0.2328,-0.115275 0.5332,-0.247684 0.90931,-0.370093 0.1072,-0.04059 0.2919,-0.08359 0.5548,-0.119388 0.10209,-0.08619 0.4821,-0.02625 1.12945,0.200738 1.85727,1.01061 4.26859,1.19064 6.85183,1.455967 3.12716,0.274054 6.30708,0.301508 9.5653,0.27223 2.10113,-0.0198 4.23129,-0.08535 6.39139,-0.124355 0.6,-0.01083 1.20059,-0.01956 1.80238,-0.02465 0.76421,-0.01057 1.61214,-0.02522 2.53825,0.06632 2.39245,0.160549 2.37317,2.909235 0.7533,3.979862 l -10e-6,8e-6 c -0.34742,0.220369 -0.68744,0.417105 -1.01347,0.599448 l -1e-5,7e-6 c -0.98817,0.553839 -1.97994,1.061306 -2.95325,1.550456 -3.08483,1.551478 -6.20277,3.014588 -9.25612,4.435723 -9.1137,4.242402 -18.36734,8.370407 -26.97586,12.198943 -6.14604,2.733429 -22.19064,9.803217 -28.33669,12.536646 -3.78012,1.67298 -7.3423,3.25177 -10.92102,4.864817 -2.33807,1.05432 -4.5394,2.03374 -6.71696,3.11107 -0.51427,0.25348 -1.08191,0.3379 -1.65285,0.24658 -0.58787,-0.12261 -1.04924,-0.34353 -1.38159,-0.59977 -0.92673,-0.68567 -1.55727,-1.49386 -2.03641,-2.20928 -1.52236,-2.167128 -2.75076,-4.559 -3.9217,-6.591354 -1.40761,-2.416666 -2.70411,-4.606812 -4.40242,-6.399676 -0.7246,-0.756235 -1.45396,-1.408146 -2.25618,-1.803559 -0.69113,-0.341815 -1.44424,-0.516285 -2.11072,-0.408003 -6.79053,0.960971 -12.52997,4.303242 -16.55645,7.977485 -3.30499,3.01982 -5.52494,6.444547 -6.926042,9.568857 -3.867243,8.59657 -2.926708,14.42345 -3.186495,14.43156 z"
           id="path1363"
           inkscape:connector-curvature="0" />
      </g>
      <path
         sodipodi:nodetypes="ccccc"
         inkscape:connector-curvature="0"
         id="path1367"
         d="m 116.56021,87.046307 c 5.41135,0.451195 12.04338,15.473593 15.21826,16.440953 3.02485,0.77017 5.49034,0.63204 7.83748,0.15244 -4.54465,-4.525194 -10.01831,-17.150973 -14.24945,-18.57161 -1.29784,-0.265938 -6.316,0.719362 -8.80629,1.978217 z"
         style="fill:#ca1e52;fill-opacity:1;stroke:#000000;stroke-width:0;stroke-linecap:butt;stroke-linejoin:miter;stroke-miterlimit:4;stroke-dasharray:none;stroke-opacity:1" />
    </g>
    <path
       style="fill:#646d8d;fill-opacity:1;stroke:#000000;stroke-width:0;stroke-linecap:butt;stroke-linejoin:miter;stroke-miterlimit:4;stroke-dasharray:none;stroke-opacity:1"
       d="m 557.49659,54.333501 c 28.68267,12.47482 56.0177,37.1474 94.55441,33.04953 -1.11831,7.77699 -2.62703,15.386649 -3.94507,23.078039 -34.29088,5.90889 -53.26643,15.02341 -72.2775,23.24743 -12.09457,-20.47437 -17.3094,-47.828499 -18.33184,-79.374999 z"
       id="path1371"
       inkscape:connector-curvature="0"
       sodipodi:nodetypes="ccccc" />
    <ellipse
       ry="3.3516893"
       rx="3.403254"
       cy="101.56915"
       cx="638.25836"
       id="ellipse1373"
       style="opacity:1;fill:#525973;fill-opacity:1;stroke:#010000;stroke-width:0;stroke-linecap:round;stroke-linejoin:round;stroke-miterlimit:4;stroke-dasharray:none;stroke-dashoffset:0;stroke-opacity:1;paint-order:normal" />
    <path
       sodipodi:nodetypes="cccc"
       inkscape:connector-curvature="0"
       id="path1375"
       d="m 605.12629,113.18155 2.3087,-22.674369 -6.73309,-4.52239 c -0.57142,9.68416 2.18362,17.459839 4.42439,27.196759 z"
       style="fill:#4b9ff5;fill-opacity:1;stroke:#000000;stroke-width:0;stroke-linecap:butt;stroke-linejoin:miter;stroke-miterlimit:4;stroke-dasharray:none;stroke-opacity:1" />
    <path
       style="fill:#36394c;fill-opacity:1;fill-rule:nonzero;stroke:none;stroke-width:0.26458332px;stroke-linecap:butt;stroke-linejoin:miter;stroke-opacity:1"
       d="m 652.04764,87.406421 c -0.0297,-0.0026 0.14214,-2.991324 0.11243,-2.993912 -8.21327,-0.722292 -18.41141,-1.967941 -30.31017,-4.738403 -11.86259,-2.76204 -22.68156,-6.406589 -32.68215,-10.52962 -8.25091,-3.401675 -15.19702,-6.826946 -20.10244,-9.280521 -3.09139,-1.546238 -4.91867,-2.477406 -6.91318,-3.444924 -2.418,-1.172946 -3.66917,-1.699153 -4.65554,-2.08554 0.93151,0.364897 2.22828,1.07734 4.45351,2.453058 1.66842,1.031476 3.81485,2.411238 6.53673,4.1095 4.70187,2.933643 11.2973,6.91713 19.44036,10.975379 9.77778,4.872939 20.66564,9.297381 32.66018,12.69319 11.96698,3.388008 22.68065,5.073615 31.04843,5.809494 0.0302,0.0027 0.38166,-2.970355 0.41184,-2.967701 z"
       id="path1377"
       inkscape:connector-curvature="0"
       inkscape:path-effect="#path-effect1429"
       inkscape:original-d="M 652.04764,87.406421 C 599.5726,82.833561 566.70591,57.941031 557.49659,54.333501"
       sodipodi:nodetypes="cc" />
    <path
       sodipodi:nodetypes="cccc"
       inkscape:connector-curvature="0"
       id="path1379"
       d="m 595.21964,117.17409 -1.20722,-33.630949 -7.85986,-5.10275 c -2.26584,13.7115 5.55283,25.654609 9.06708,38.733699 z"
       style="fill:#4b9ff5;fill-opacity:1;stroke:#000000;stroke-width:0;stroke-linecap:butt;stroke-linejoin:miter;stroke-miterlimit:4;stroke-dasharray:none;stroke-opacity:1" />
    <path
       inkscape:connector-curvature="0"
       id="path1381"
       d="m 636.78968,93.641217 a 7.181547,6.9925593 0 0 0 -7.18199,6.992333 7.181547,6.9925593 0 0 0 7.18199,6.99286 7.181547,6.9925593 0 0 0 7.18147,-6.99286 7.181547,6.9925593 0 0 0 -7.18147,-6.992333 z m 1.21595,4.9506 a 3.1183035,3.0710563 0 0 1 3.11815,3.070613 3.1183035,3.0710563 0 0 1 -3.11815,3.07113 3.1183035,3.0710563 0 0 1 -3.11868,-3.07113 3.1183035,3.0710563 0 0 1 3.11868,-3.070613 z"
       style="opacity:1;fill:#e12a64;fill-opacity:1;stroke:#010000;stroke-width:0;stroke-linecap:round;stroke-linejoin:round;stroke-miterlimit:4;stroke-dasharray:none;stroke-dashoffset:0;stroke-opacity:1;paint-order:normal" />
    <path
       sodipodi:nodetypes="cccc"
       inkscape:connector-curvature="0"
       id="path1383"
       d="m 585.33116,120.46747 -8.83871,-46.024189 -11.32512,-6.19063 c 0.91966,21.26378 12.39025,35.148709 20.16383,52.214819 z"
       style="fill:#4b9ff5;fill-opacity:1;stroke:#000000;stroke-width:0;stroke-linecap:butt;stroke-linejoin:miter;stroke-miterlimit:4;stroke-dasharray:none;stroke-opacity:1" />
    <path
       style="fill:#36394c;fill-opacity:1;fill-rule:nonzero;stroke:none;stroke-width:0.26458332px;stroke-linecap:butt;stroke-linejoin:miter;stroke-opacity:1"
       d="m 600.68322,136.7182 c -0.0347,0.0288 -0.47527,-0.22387 -1.10596,-0.30523 -0.52354,-0.0675 -1.10096,-0.0554 -1.58001,0.0232 -0.41799,0.0686 -0.72532,0.18335 -0.76447,0.30612 -0.10044,0.31495 -0.19057,0.69311 -0.26726,1.14456 -0.17011,1.00136 -0.29489,2.51348 -0.23223,4.38431 0.0972,2.90232 0.67319,7.12719 2.67203,10.67426 0.95182,1.68906 2.20034,3.17565 3.80423,4.2818 1.66713,1.14977 3.5968,1.80597 5.77696,1.98661 2.42391,0.20083 5.0747,-0.19207 7.88029,-1.0129 3.72798,-1.09068 7.4748,-2.86224 10.7305,-4.55902 -3.25187,1.69479 -7.10143,3.30345 -10.85137,4.07329 -2.84336,0.58373 -5.39228,0.6372 -7.54432,0.12122 -1.91422,-0.45896 -3.36774,-1.33246 -4.44712,-2.46597 -1.03405,-1.08592 -1.72785,-2.41273 -2.17603,-3.84599 -0.96116,-3.07374 -0.77244,-6.5448 -0.38394,-8.96099 0.24699,-1.53618 0.57065,-2.65578 0.77862,-3.30015 0.0924,-0.28626 0.16504,-0.48921 0.20808,-0.62421 0.017,-0.0533 -0.20244,-0.20298 -0.51824,-0.39778 -0.35145,-0.21679 -0.82638,-0.49224 -1.2175,-0.76624 -0.48185,-0.33756 -0.82882,-0.70173 -0.76226,-0.75686 z"
       id="path1385"
       inkscape:connector-curvature="0"
       inkscape:path-effect="#path-effect1423"
       inkscape:original-d="m 600.68322,136.7182 c -1.75645,1.45488 -6.39179,34.28178 26.91408,16.92368"
       sodipodi:nodetypes="cc" />
    <path
       style="fill:#4b9ff5;fill-opacity:1;stroke:#000000;stroke-width:0;stroke-linecap:butt;stroke-linejoin:miter;stroke-miterlimit:4;stroke-dasharray:none;stroke-opacity:1"
       d="m 606.31739,190.67669 c 6.82539,-3.64286 13.39801,-8.80507 19.84368,-14.73024 l 1.14209,-8.58072 52.53579,-10.43987 7.85182,-18.73458 30.2652,-4.86241 5.28213,-17.30446 16.70295,-6.0065 20.55748,-39.185289 C 710.456,113.0392 610.58026,122.63738 606.31739,190.67669 Z"
       id="path1387"
       inkscape:connector-curvature="0"
       sodipodi:nodetypes="cccccccccc" />
  </g>
</svg>
